<?xml version="1.0" standalone="no"?>
 <!DOCTYPE svg PUBLIC "-//W3C//DTD SVG 1.1//EN" 
 "http://www.w3.org/Graphics/SVG/1.1/DTD/svg11.dtd"> 
<svg xmlns="http://www.w3.org/2000/svg" version="1.1" 
    width="29.7002cm" height="21.0007cm" viewBox="0 0 116930 82680 ">
<title>SVG Picture created as termostato-F.SilkS.svg date 2017/12/23 20:44:44 </title>
  <desc>Picture generated by PCBNEW </desc>
<g style="fill:#000000; fill-opacity:1;stroke:#000000; stroke-opacity:1;
stroke-linecap:round; stroke-linejoin:round; "
 transform="translate(0 0) scale(1 1)">
</g>
<g style="fill:#000000; fill-opacity:0.0; 
stroke:#000000; stroke-width:-0.000393701; stroke-opacity:1; 
stroke-linecap:round; stroke-linejoin:round;">
</g>
<g style="fill:#000000; fill-opacity:0.0; 
stroke:#000000; stroke-width:49.2126; stroke-opacity:1; 
stroke-linecap:round; stroke-linejoin:round;">
<path d="M78116 35718
L78051 35625
" />
<path d="M78004 35718
L78004 35522
L78079 35522
L78098 35531
L78107 35540
L78116 35559
L78116 35587
L78107 35606
L78098 35615
L78079 35625
L78004 35625
" />
<path d="M78182 35522
L78313 35718
" />
<path d="M78313 35522
L78182 35718
" />
<path d="M77015 35522
L77127 35522
" />
<path d="M77071 35718
L77071 35522
" />
<path d="M77174 35522
L77305 35718
" />
<path d="M77305 35522
L77174 35718
" />
<path d="M76031 35531
L76012 35522
L75984 35522
L75956 35531
L75937 35550
L75928 35568
L75918 35606
L75918 35634
L75928 35672
L75937 35690
L75956 35709
L75984 35718
L76002 35718
L76031 35709
L76040 35700
L76040 35634
L76002 35634
" />
<path d="M76124 35718
L76124 35522
L76237 35718
L76237 35522
" />
<path d="M76331 35718
L76331 35522
L76377 35522
L76406 35531
L76424 35550
L76434 35568
L76443 35606
L76443 35634
L76434 35672
L76424 35690
L76406 35709
L76377 35718
L76331 35718
" />
</g>
<g style="fill:#000000; fill-opacity:0.0; 
stroke:#000000; stroke-width:50; stroke-opacity:1; 
stroke-linecap:round; stroke-linejoin:round;">
<path d="M61220 50000
L69094 50000
" />
<path d="M69094 36614
L61220 36614
" />
<path d="M61220 36614
L61220 50000
" />
<path d="M69094 50000
L69094 36614
" />
</g>
<g style="fill:#000000; fill-opacity:0.0; 
stroke:#000000; stroke-width:60; stroke-opacity:1; 
stroke-linecap:round; stroke-linejoin:round;">
<path d="M73425 40590
L79724 40590
" />
<path d="M79724 40590
L79724 42716
" />
<path d="M73425 40590
L73425 42716
" />
<path d="M73425 48937
L73425 49251
" />
<path d="M73425 49251
L79724 49251
" />
<path d="M79724 49251
L79724 48937
" />
<path d="M79724 40590
L73425 42086
" />
<path d="M73425 40590
L79724 42086
" />
<path d="M73422 42086
L79721 42086
" />
</g>
<g style="fill:#000000; fill-opacity:0.0; 
stroke:#000000; stroke-width:47.2441; stroke-opacity:1; 
stroke-linecap:round; stroke-linejoin:round;">
<path d="M74456 38401
L70456 38401
" />
<path d="M74456 38901
L74456 35901
" />
<path d="M74456 35901
L70456 35901
" />
<path d="M70456 35901
L70456 38901
" />
<path d="M70456 38901
L74456 38901
" />
<path d="M77649 36090
L75625 36090
" />
<path d="M75625 36090
L75625 37137
" />
<path d="M75625 37137
L77649 37137
" />
<path d="M77649 37137
L77649 36090
" />
<path d="M78149 36090
L78673 36090
" />
<path d="M78673 36090
L78673 36614
" />
<path d="M82086 48622
L83858 48622
" />
<path d="M81594 47047
L81594 47637
" />
<path d="M83858 46062
L82086 46062
" />
<path d="M84350 47637
L84350 47047
" />
<circle cx="71063" cy="44685" r="338.583" /> 
<path d="M71062 45023
L71062 45291
" />
<path d="M78417 38440
L79881 38440
" />
<path d="M78417 39118
L79881 39118
" />
<path d="M83374 44814
L86397 44814
" />
<path d="M86397 44814
L86397 43767
" />
<path d="M86397 43767
L83374 43767
" />
<path d="M83374 43767
L83374 44814
" />
<path d="M82874 44814
L82350 44814
" />
<path d="M82350 44814
L82350 44291
" />
<path d="M82031 42984
L82031 44448
" />
<path d="M81354 42984
L81354 44448
" />
</g>
<g style="fill:#000000; fill-opacity:0.0; 
stroke:#000000; stroke-width:50; stroke-opacity:1; 
stroke-linecap:round; stroke-linejoin:round;">
<path d="M68628 36142
L68628 36385
L68643 36414
L68657 36428
L68686 36442
L68743 36442
L68771 36428
L68786 36414
L68800 36385
L68800 36142
" />
<path d="M69100 36442
L68928 36442
" />
<path d="M69014 36442
L69014 36142
L68986 36185
L68957 36214
L68928 36228
" />
</g>
<g style="fill:#000000; fill-opacity:0.0; 
stroke:#000000; stroke-width:59.0551; stroke-opacity:1; 
stroke-linecap:round; stroke-linejoin:round;">
<path d="M72140 42304
L72140 42622
L72159 42660
L72178 42679
L72215 42697
L72290 42697
L72328 42679
L72347 42660
L72365 42622
L72365 42304
" />
<path d="M72534 42341
L72553 42322
L72590 42304
L72684 42304
L72722 42322
L72740 42341
L72759 42379
L72759 42416
L72740 42472
L72515 42697
L72759 42697
" />
<path d="M75069 41162
L75069 40768
L75294 41162
L75294 40768
" />
<path d="M75538 41162
L75501 41143
L75482 41124
L75463 41087
L75463 40974
L75482 40937
L75501 40918
L75538 40899
L75594 40899
L75632 40918
L75651 40937
L75669 40974
L75669 41087
L75651 41124
L75632 41143
L75594 41162
L75538 41162
" />
<path d="M76363 41124
L76344 41143
L76288 41162
L76251 41162
L76194 41143
L76157 41106
L76138 41068
L76119 40993
L76119 40937
L76138 40862
L76157 40824
L76194 40787
L76251 40768
L76288 40768
L76344 40787
L76363 40806
" />
<path d="M76588 41162
L76551 41143
L76532 41124
L76513 41087
L76513 40974
L76532 40937
L76551 40918
L76588 40899
L76644 40899
L76682 40918
L76701 40937
L76719 40974
L76719 41087
L76701 41124
L76682 41143
L76644 41162
L76588 41162
" />
<path d="M76888 40899
L76888 41293
" />
<path d="M76888 40918
L76925 40899
L77000 40899
L77038 40918
L77057 40937
L77075 40974
L77075 41087
L77057 41124
L77038 41143
L77000 41162
L76925 41162
L76888 41143
" />
<path d="M77244 40899
L77244 41293
" />
<path d="M77244 40918
L77282 40899
L77357 40899
L77394 40918
L77413 40937
L77432 40974
L77432 41087
L77413 41124
L77394 41143
L77357 41162
L77282 41162
L77244 41143
" />
<path d="M77750 41143
L77713 41162
L77638 41162
L77600 41143
L77582 41106
L77582 40956
L77600 40918
L77638 40899
L77713 40899
L77750 40918
L77769 40956
L77769 40993
L77582 41031
" />
<path d="M77938 41162
L77938 40899
" />
<path d="M77938 40974
L77957 40937
L77975 40918
L78013 40899
L78050 40899
" />
<path d="M72325 35185
L72325 35467
L72306 35523
L72269 35560
L72212 35579
L72175 35579
" />
<path d="M72719 35579
L72494 35579
" />
<path d="M72606 35579
L72606 35185
L72569 35242
L72531 35279
L72494 35298
" />
<path d="M78851 36745
L79132 36745
L79188 36764
L79226 36801
L79245 36857
L79245 36895
" />
<path d="M78888 36576
L78870 36557
L78851 36520
L78851 36426
L78870 36389
L78888 36370
L78926 36351
L78963 36351
L79020 36370
L79245 36595
L79245 36351
" />
<path d="M82672 45453
L82672 45772
L82691 45809
L82709 45828
L82747 45847
L82822 45847
L82859 45828
L82878 45809
L82897 45772
L82897 45453
" />
<path d="M83047 45453
L83291 45453
L83159 45603
L83216 45603
L83253 45622
L83272 45641
L83291 45678
L83291 45772
L83272 45809
L83253 45828
L83216 45847
L83103 45847
L83066 45828
L83047 45809
" />
<path d="M71973 45250
L71785 45381
" />
<path d="M71973 45475
L71579 45475
L71579 45325
L71598 45288
L71617 45269
L71654 45250
L71710 45250
L71748 45269
L71767 45288
L71785 45325
L71785 45475
" />
<path d="M71973 44875
L71973 45100
" />
<path d="M71973 44988
L71579 44988
L71635 45025
L71673 45063
L71692 45100
" />
<path d="M79083 38225
L78952 38037
" />
<path d="M78859 38225
L78859 37831
L79008 37831
L79046 37850
L79065 37869
L79083 37906
L79083 37962
L79065 38000
L79046 38019
L79008 38037
L78859 38037
" />
<path d="M79233 37869
L79252 37850
L79290 37831
L79383 37831
L79421 37850
L79440 37869
L79458 37906
L79458 37944
L79440 38000
L79215 38225
L79458 38225
" />
<path d="M81741 44422
L82022 44422
L82078 44441
L82116 44478
L82134 44535
L82134 44572
" />
<path d="M81741 44272
L81741 44028
L81891 44160
L81891 44103
L81909 44066
L81928 44047
L81966 44028
L82059 44028
L82097 44047
L82116 44066
L82134 44103
L82134 44216
L82116 44253
L82097 44272
" />
<path d="M82603 43782
L82415 43913
" />
<path d="M82603 44007
L82209 44007
L82209 43857
L82228 43819
L82247 43800
L82284 43782
L82340 43782
L82378 43800
L82397 43819
L82415 43857
L82415 44007
" />
<path d="M82209 43650
L82209 43407
L82359 43538
L82359 43482
L82378 43444
L82397 43425
L82434 43407
L82528 43407
L82565 43425
L82584 43444
L82603 43482
L82603 43594
L82584 43632
L82565 43650
" />
</g> 
</svg>
