<?xml version="1.0" standalone="no"?>
 <!DOCTYPE svg PUBLIC "-//W3C//DTD SVG 1.1//EN" 
 "http://www.w3.org/Graphics/SVG/1.1/DTD/svg11.dtd"> 
<svg xmlns="http://www.w3.org/2000/svg" version="1.1" 
    width="29.7002cm" height="21.0007cm" viewBox="0 0 116930 82680 ">
<title>SVG Picture created as termostato-F.Fab.svg date 2017/12/23 20:44:44 </title>
  <desc>Picture generated by PCBNEW </desc>
<g style="fill:#000000; fill-opacity:1;stroke:#000000; stroke-opacity:1;
stroke-linecap:round; stroke-linejoin:round; "
 transform="translate(0 0) scale(1 1)">
</g>
<g style="fill:#000000; fill-opacity:0.0; 
stroke:#000000; stroke-width:-0.000393701; stroke-opacity:1; 
stroke-linecap:round; stroke-linejoin:round;">
</g>
<g style="fill:#000000; fill-opacity:0.0; 
stroke:#000000; stroke-width:19.685; stroke-opacity:1; 
stroke-linecap:round; stroke-linejoin:round;">
<path d="M79724 40590
L79724 49251
" />
<path d="M79724 49251
L73425 49251
" />
<path d="M73422 49251
L73422 40590
" />
<path d="M73425 40590
L79724 40590
" />
</g>
<g style="fill:#000000; fill-opacity:0.0; 
stroke:#000000; stroke-width:39.3701; stroke-opacity:1; 
stroke-linecap:round; stroke-linejoin:round;">
<path d="M70507 38405
L74405 38405
" />
<path d="M70488 35925
L70488 38877
" />
<path d="M70488 38877
L74425 38877
" />
<path d="M74425 38877
L74425 35925
" />
<path d="M74425 35925
L70488 35925
" />
<path d="M78649 36114
L75649 36114
" />
<path d="M75649 36114
L75649 37114
" />
<path d="M75649 37114
L78649 37114
" />
<path d="M78649 37114
L78649 36114
" />
<path d="M82972 46161
L84153 46161
" />
<path d="M84153 46161
L84153 48523
" />
<path d="M84153 48523
L81791 48523
" />
<path d="M81791 48523
L81791 46161
" />
<path d="M81791 46161
L82972 46161
" />
<circle cx="82972.4" cy="47342.5" r="793.529" /> 
<circle cx="71063" cy="44685" r="314.961" /> 
<path d="M71062 44685
L71062 45685
" />
<path d="M78440 38464
L78440 39094
" />
<path d="M78440 39094
L79858 39094
" />
<path d="M79858 39094
L79858 38464
" />
<path d="M79858 38464
L78440 38464
" />
<path d="M78149 38779
L78440 38779
" />
<path d="M80149 38779
L79858 38779
" />
<path d="M82374 44791
L86374 44791
" />
<path d="M86374 44791
L86374 43791
" />
<path d="M86374 43791
L82374 43791
" />
<path d="M82374 43791
L82374 44791
" />
<path d="M82007 43007
L81377 43007
" />
<path d="M81377 43007
L81377 44425
" />
<path d="M81377 44425
L82007 44425
" />
<path d="M82007 44425
L82007 43007
" />
<path d="M81692 42716
L81692 43007
" />
<path d="M81692 44716
L81692 44425
" />
</g>
<g style="fill:#000000; fill-opacity:0.0; 
stroke:#000000; stroke-width:50; stroke-opacity:1; 
stroke-linecap:round; stroke-linejoin:round;">
<path d="M60962 44457
L60662 44457
" />
<path d="M60805 44457
L60805 44285
" />
<path d="M60962 44285
L60662 44285
" />
<path d="M60962 43999
L60962 44142
L60662 44142
" />
<path d="M60962 43899
L60662 43899
" />
<path d="M60962 43728
L60791 43857
" />
<path d="M60662 43728
L60833 43899
" />
<path d="M60848 43599
L60848 43371
" />
<path d="M60962 43228
L60662 43228
L60662 43114
L60676 43085
L60691 43071
L60719 43057
L60762 43057
L60791 43071
L60805 43085
L60819 43114
L60819 43228
" />
<path d="M60962 42928
L60662 42928
L60876 42828
L60662 42728
L60962 42728
" />
<path d="M60662 42528
L60662 42499
L60676 42471
L60691 42457
L60719 42442
L60776 42428
L60848 42428
L60905 42442
L60933 42457
L60948 42471
L60962 42499
L60962 42528
L60948 42557
L60933 42571
L60905 42585
L60848 42599
L60776 42599
L60719 42585
L60691 42571
L60676 42557
L60662 42528
" />
<path d="M60662 42328
L60662 42142
L60776 42242
L60776 42199
L60791 42171
L60805 42157
L60833 42142
L60905 42142
L60933 42157
L60948 42171
L60962 42199
L60962 42285
L60948 42314
L60933 42328
" />
</g>
<g style="fill:#000000; fill-opacity:0.0; 
stroke:#000000; stroke-width:59.0551; stroke-opacity:1; 
stroke-linecap:round; stroke-linejoin:round;">
<path d="M75248 43967
L75379 43967
" />
<path d="M75435 44174
L75248 44174
L75248 43780
L75435 43780
" />
<path d="M75585 44155
L75642 44174
L75735 44174
L75773 44155
L75792 44136
L75810 44099
L75810 44061
L75792 44024
L75773 44005
L75735 43986
L75660 43967
L75623 43949
L75604 43930
L75585 43892
L75585 43855
L75604 43817
L75623 43799
L75660 43780
L75754 43780
L75810 43799
" />
<path d="M75979 44174
L75979 43780
L76129 43780
L76167 43799
L76185 43817
L76204 43855
L76204 43911
L76185 43949
L76167 43967
L76129 43986
L75979 43986
" />
<path d="M76373 44024
L76673 44024
" />
<path d="M76935 43780
L76973 43780
L77010 43799
L77029 43817
L77048 43855
L77066 43930
L77066 44024
L77048 44099
L77029 44136
L77010 44155
L76973 44174
L76935 44174
L76898 44155
L76879 44136
L76860 44099
L76841 44024
L76841 43930
L76860 43855
L76879 43817
L76898 43799
L76935 43780
" />
<path d="M77198 43780
L77460 43780
L77291 44174
" />
<path d="M77573 43911
L77666 44174
L77760 43911
" />
<path d="M77891 43817
L77910 43799
L77948 43780
L78041 43780
L78079 43799
L78098 43817
L78116 43855
L78116 43892
L78098 43949
L77873 44174
L78116 44174
" />
<path d="M69785 39542
L69766 39560
L69710 39579
L69672 39579
L69616 39560
L69578 39523
L69560 39485
L69541 39410
L69541 39354
L69560 39279
L69578 39242
L69616 39204
L69672 39185
L69710 39185
L69766 39204
L69785 39223
" />
<path d="M70010 39579
L69972 39560
L69953 39542
L69935 39504
L69935 39392
L69953 39354
L69972 39335
L70010 39317
L70066 39317
L70103 39335
L70122 39354
L70141 39392
L70141 39504
L70122 39542
L70103 39560
L70066 39579
L70010 39579
" />
<path d="M70310 39317
L70310 39579
" />
<path d="M70310 39354
L70328 39335
L70366 39317
L70422 39317
L70460 39335
L70478 39373
L70478 39579
" />
<path d="M70666 39317
L70666 39579
" />
<path d="M70666 39354
L70685 39335
L70722 39317
L70778 39317
L70816 39335
L70835 39373
L70835 39579
" />
<path d="M70928 39617
L71228 39617
" />
<path d="M71397 39185
L71434 39185
L71472 39204
L71491 39223
L71509 39260
L71528 39335
L71528 39429
L71509 39504
L71491 39542
L71472 39560
L71434 39579
L71397 39579
L71359 39560
L71341 39542
L71322 39504
L71303 39429
L71303 39335
L71322 39260
L71341 39223
L71359 39204
L71397 39185
" />
<path d="M71903 39579
L71678 39579
" />
<path d="M71791 39579
L71791 39185
L71753 39242
L71716 39279
L71678 39298
" />
<path d="M72034 39579
L72241 39317
" />
<path d="M72034 39317
L72241 39579
" />
<path d="M72466 39185
L72503 39185
L72541 39204
L72559 39223
L72578 39260
L72597 39335
L72597 39429
L72578 39504
L72559 39542
L72541 39560
L72503 39579
L72466 39579
L72428 39560
L72409 39542
L72391 39504
L72372 39429
L72372 39335
L72391 39260
L72409 39223
L72428 39204
L72466 39185
" />
<path d="M72747 39223
L72766 39204
L72803 39185
L72897 39185
L72934 39204
L72953 39223
L72972 39260
L72972 39298
L72953 39354
L72728 39579
L72972 39579
" />
<path d="M73047 39617
L73347 39617
" />
<path d="M73572 39373
L73440 39373
" />
<path d="M73440 39579
L73440 39185
L73628 39185
" />
<path d="M73928 39560
L73890 39579
L73815 39579
L73778 39560
L73759 39523
L73759 39373
L73778 39335
L73815 39317
L73890 39317
L73928 39335
L73947 39373
L73947 39410
L73759 39448
" />
<path d="M74115 39579
L74115 39317
" />
<path d="M74115 39354
L74134 39335
L74172 39317
L74228 39317
L74265 39335
L74284 39373
L74284 39579
" />
<path d="M74284 39373
L74303 39335
L74340 39317
L74397 39317
L74434 39335
L74453 39373
L74453 39579
" />
<path d="M74809 39579
L74809 39373
L74790 39335
L74753 39317
L74678 39317
L74640 39335
" />
<path d="M74809 39560
L74772 39579
L74678 39579
L74640 39560
L74622 39523
L74622 39485
L74640 39448
L74678 39429
L74772 39429
L74809 39410
" />
<path d="M75053 39579
L75015 39560
L74997 39523
L74997 39185
" />
<path d="M75353 39560
L75315 39579
L75240 39579
L75203 39560
L75184 39523
L75184 39373
L75203 39335
L75240 39317
L75315 39317
L75353 39335
L75371 39373
L75371 39410
L75184 39448
" />
<path d="M72325 37185
L72325 37467
L72306 37523
L72269 37560
L72212 37579
L72175 37579
" />
<path d="M72719 37579
L72494 37579
" />
<path d="M72606 37579
L72606 37185
L72569 37242
L72531 37279
L72494 37298
" />
<path d="M75372 39285
L75391 39304
L75410 39360
L75410 39398
L75391 39454
L75354 39491
L75316 39510
L75241 39529
L75185 39529
L75110 39510
L75072 39491
L75035 39454
L75016 39398
L75016 39360
L75035 39304
L75054 39285
" />
<path d="M75410 39060
L75391 39098
L75372 39116
L75335 39135
L75222 39135
L75185 39116
L75166 39098
L75147 39060
L75147 39004
L75166 38967
L75185 38948
L75222 38929
L75335 38929
L75372 38948
L75391 38967
L75410 39004
L75410 39060
" />
<path d="M75147 38760
L75410 38760
" />
<path d="M75185 38760
L75166 38742
L75147 38704
L75147 38648
L75166 38610
L75204 38592
L75410 38592
" />
<path d="M75147 38404
L75410 38404
" />
<path d="M75185 38404
L75166 38385
L75147 38348
L75147 38292
L75166 38254
L75204 38235
L75410 38235
" />
<path d="M75447 38142
L75447 37842
" />
<path d="M75016 37673
L75016 37635
L75035 37598
L75054 37579
L75091 37560
L75166 37542
L75260 37542
L75335 37560
L75372 37579
L75391 37598
L75410 37635
L75410 37673
L75391 37710
L75372 37729
L75335 37748
L75260 37767
L75166 37767
L75091 37748
L75054 37729
L75035 37710
L75016 37673
" />
<path d="M75410 37167
L75410 37392
" />
<path d="M75410 37279
L75016 37279
L75072 37317
L75110 37354
L75129 37392
" />
<path d="M75410 37035
L75147 36829
" />
<path d="M75147 37035
L75410 36829
" />
<path d="M75016 36604
L75016 36567
L75035 36529
L75054 36511
L75091 36492
L75166 36473
L75260 36473
L75335 36492
L75372 36511
L75391 36529
L75410 36567
L75410 36604
L75391 36642
L75372 36661
L75335 36679
L75260 36698
L75166 36698
L75091 36679
L75054 36661
L75035 36642
L75016 36604
" />
<path d="M75016 36342
L75016 36098
L75166 36229
L75166 36173
L75185 36136
L75204 36117
L75241 36098
L75335 36098
L75372 36117
L75391 36136
L75410 36173
L75410 36286
L75391 36323
L75372 36342
" />
<path d="M75447 36023
L75447 35723
" />
<path d="M75204 35498
L75204 35629
" />
<path d="M75410 35629
L75016 35629
L75016 35442
" />
<path d="M75391 35142
L75410 35179
L75410 35254
L75391 35292
L75354 35311
L75204 35311
L75166 35292
L75147 35254
L75147 35179
L75166 35142
L75204 35123
L75241 35123
L75279 35311
" />
<path d="M75410 34955
L75147 34955
" />
<path d="M75185 34955
L75166 34936
L75147 34898
L75147 34842
L75166 34805
L75204 34786
L75410 34786
" />
<path d="M75204 34786
L75166 34767
L75147 34730
L75147 34673
L75166 34636
L75204 34617
L75410 34617
" />
<path d="M75410 34261
L75204 34261
L75166 34280
L75147 34317
L75147 34392
L75166 34430
" />
<path d="M75391 34261
L75410 34298
L75410 34392
L75391 34430
L75354 34448
L75316 34448
L75279 34430
L75260 34392
L75260 34298
L75241 34261
" />
<path d="M75410 34017
L75391 34055
L75354 34073
L75016 34073
" />
<path d="M75391 33717
L75410 33755
L75410 33830
L75391 33867
L75354 33886
L75204 33886
L75166 33867
L75147 33830
L75147 33755
L75166 33717
L75204 33698
L75241 33698
L75279 33886
" />
<path d="M78851 36745
L79132 36745
L79188 36764
L79226 36801
L79245 36857
L79245 36895
" />
<path d="M78888 36576
L78870 36557
L78851 36520
L78851 36426
L78870 36389
L78888 36370
L78926 36351
L78963 36351
L79020 36370
L79245 36595
L79245 36351
" />
<path d="M81988 49010
L81988 49403
" />
<path d="M81988 49028
L82025 49010
L82100 49010
L82138 49028
L82156 49047
L82175 49085
L82175 49197
L82156 49235
L82138 49253
L82100 49272
L82025 49272
L81988 49253
" />
<path d="M82513 49010
L82513 49272
" />
<path d="M82344 49010
L82344 49216
L82363 49253
L82400 49272
L82456 49272
L82494 49253
L82513 49235
" />
<path d="M82756 49272
L82719 49253
L82700 49216
L82700 48878
" />
<path d="M82888 49253
L82925 49272
L83000 49272
L83038 49253
L83056 49216
L83056 49197
L83038 49160
L83000 49141
L82944 49141
L82906 49122
L82888 49085
L82888 49066
L82906 49028
L82944 49010
L83000 49010
L83038 49028
" />
<path d="M83394 49272
L83394 49066
L83375 49028
L83338 49010
L83263 49010
L83225 49028
" />
<path d="M83394 49253
L83356 49272
L83263 49272
L83225 49253
L83206 49216
L83206 49178
L83225 49141
L83263 49122
L83356 49122
L83394 49103
" />
<path d="M83750 49272
L83750 48878
" />
<path d="M83750 49253
L83712 49272
L83637 49272
L83600 49253
L83581 49235
L83562 49197
L83562 49085
L83581 49047
L83600 49028
L83637 49010
L83712 49010
L83750 49028
" />
<path d="M83994 49272
L83956 49253
L83937 49235
L83919 49197
L83919 49085
L83937 49047
L83956 49028
L83994 49010
L84050 49010
L84087 49028
L84106 49047
L84125 49085
L84125 49197
L84106 49235
L84087 49253
L84050 49272
L83994 49272
" />
<path d="M84294 49272
L84294 49010
" />
<path d="M84294 49085
L84312 49047
L84331 49028
L84369 49010
L84406 49010
" />
<path d="M82672 47126
L82672 47445
L82691 47483
L82709 47501
L82747 47520
L82822 47520
L82859 47501
L82878 47483
L82897 47445
L82897 47126
" />
<path d="M83047 47126
L83291 47126
L83159 47276
L83216 47276
L83253 47295
L83272 47314
L83291 47351
L83291 47445
L83272 47483
L83253 47501
L83216 47520
L83103 47520
L83066 47501
L83047 47483
" />
<path d="M70508 45456
L70508 45681
" />
<path d="M70508 45569
L70115 45569
L70171 45606
L70208 45644
L70227 45681
" />
<path d="M70115 45213
L70115 45175
L70133 45138
L70152 45119
L70190 45100
L70265 45081
L70358 45081
L70433 45100
L70471 45119
L70490 45138
L70508 45175
L70508 45213
L70490 45250
L70471 45269
L70433 45288
L70358 45306
L70265 45306
L70190 45288
L70152 45269
L70133 45250
L70115 45213
" />
<path d="M70508 44913
L70115 44913
" />
<path d="M70508 44688
L70283 44856
" />
<path d="M70115 44688
L70340 44913
" />
<path d="M78887 39689
L78662 39689
" />
<path d="M78774 39689
L78774 39296
L78737 39352
L78699 39389
L78662 39408
" />
<path d="M79112 39464
L79074 39446
L79055 39427
L79037 39389
L79037 39371
L79055 39333
L79074 39314
L79112 39296
L79187 39296
L79224 39314
L79243 39333
L79262 39371
L79262 39389
L79243 39427
L79224 39446
L79187 39464
L79112 39464
L79074 39483
L79055 39502
L79037 39539
L79037 39614
L79055 39652
L79074 39671
L79112 39689
L79187 39689
L79224 39671
L79243 39652
L79262 39614
L79262 39539
L79243 39502
L79224 39483
L79187 39464
" />
<path d="M79505 39296
L79543 39296
L79580 39314
L79599 39333
L79618 39371
L79637 39446
L79637 39539
L79618 39614
L79599 39652
L79580 39671
L79543 39689
L79505 39689
L79468 39671
L79449 39652
L79430 39614
L79412 39539
L79412 39446
L79430 39371
L79449 39333
L79468 39314
L79505 39296
" />
<path d="M86931 46962
L86950 46981
L86969 47037
L86969 47075
L86950 47131
L86913 47169
L86875 47187
L86800 47206
L86744 47206
L86669 47187
L86631 47169
L86594 47131
L86575 47075
L86575 47037
L86594 46981
L86613 46962
" />
<path d="M86969 46737
L86950 46775
L86931 46794
L86894 46812
L86781 46812
L86744 46794
L86725 46775
L86706 46737
L86706 46681
L86725 46644
L86744 46625
L86781 46606
L86894 46606
L86931 46625
L86950 46644
L86969 46681
L86969 46737
" />
<path d="M86706 46437
L86969 46437
" />
<path d="M86744 46437
L86725 46419
L86706 46381
L86706 46325
L86725 46287
L86763 46269
L86969 46269
" />
<path d="M86706 46081
L86969 46081
" />
<path d="M86744 46081
L86725 46062
L86706 46025
L86706 45969
L86725 45931
L86763 45913
L86969 45913
" />
<path d="M87006 45819
L87006 45519
" />
<path d="M86575 45350
L86575 45313
L86594 45275
L86613 45256
L86650 45238
L86725 45219
L86819 45219
L86894 45238
L86931 45256
L86950 45275
L86969 45313
L86969 45350
L86950 45388
L86931 45406
L86894 45425
L86819 45444
L86725 45444
L86650 45425
L86613 45406
L86594 45388
L86575 45350
" />
<path d="M86969 44844
L86969 45069
" />
<path d="M86969 44956
L86575 44956
L86631 44994
L86669 45031
L86688 45069
" />
<path d="M86969 44713
L86706 44506
" />
<path d="M86706 44713
L86969 44506
" />
<path d="M86575 44281
L86575 44244
L86594 44206
L86613 44188
L86650 44169
L86725 44150
L86819 44150
L86894 44169
L86931 44188
L86950 44206
L86969 44244
L86969 44281
L86950 44319
L86931 44338
L86894 44356
L86819 44375
L86725 44375
L86650 44356
L86613 44338
L86594 44319
L86575 44281
" />
<path d="M86706 43813
L86969 43813
" />
<path d="M86556 43907
L86838 44000
L86838 43757
" />
<path d="M87006 43700
L87006 43400
" />
<path d="M86763 43175
L86763 43307
" />
<path d="M86969 43307
L86575 43307
L86575 43119
" />
<path d="M86950 42819
L86969 42857
L86969 42932
L86950 42969
L86913 42988
L86763 42988
L86725 42969
L86706 42932
L86706 42857
L86725 42819
L86763 42800
L86800 42800
L86838 42988
" />
<path d="M86969 42632
L86706 42632
" />
<path d="M86744 42632
L86725 42613
L86706 42575
L86706 42519
L86725 42482
L86763 42463
L86969 42463
" />
<path d="M86763 42463
L86725 42444
L86706 42407
L86706 42350
L86725 42313
L86763 42294
L86969 42294
" />
<path d="M86969 41938
L86763 41938
L86725 41957
L86706 41994
L86706 42069
L86725 42107
" />
<path d="M86950 41938
L86969 41976
L86969 42069
L86950 42107
L86913 42125
L86875 42125
L86838 42107
L86819 42069
L86819 41976
L86800 41938
" />
<path d="M86969 41694
L86950 41732
L86913 41751
L86575 41751
" />
<path d="M86950 41394
L86969 41432
L86969 41507
L86950 41544
L86913 41563
L86763 41563
L86725 41544
L86706 41507
L86706 41432
L86725 41394
L86763 41376
L86800 41376
L86838 41563
" />
<path d="M81741 44422
L82022 44422
L82078 44441
L82116 44478
L82134 44535
L82134 44572
" />
<path d="M81741 44272
L81741 44028
L81891 44160
L81891 44103
L81909 44066
L81928 44047
L81966 44028
L82059 44028
L82097 44047
L82116 44066
L82134 44103
L82134 44216
L82116 44253
L82097 44272
" />
<path d="M80876 44025
L81138 44025
" />
<path d="M80726 44119
L81007 44213
L81007 43969
" />
<path d="M81138 43819
L80745 43819
" />
<path d="M81138 43594
L80913 43763
" />
<path d="M80745 43594
L80970 43819
" />
<path d="M80745 43463
L80745 43200
L81138 43369
" />
</g> 
</svg>
